<svg version="1.1" xmlns="http://www.w3.org/2000/svg" width="1024" height="1024" viewBox="0 0 1024 1024">
  <title>arrow-down</title>
  <path d="M534.613 694.613c-5.789 5.782-13.784 9.359-22.613 9.359s-16.824-3.576-22.614-9.359v0l-320-320c-5.321-5.699-8.588-13.376-8.588-21.815 0-17.673 14.327-32 32-32 8.44 0 16.116 3.267 21.834 8.606l-0.019-0.017 297.387 297.387 297.387-297.387c5.858-6.274 14.178-10.185 23.412-10.185 17.673 0 32 14.327 32 32 0 9.234-3.911 17.554-10.166 23.394l-0.019 0.017-320 320z"></path>
</svg>
