<!-- Generated by IcoMoon.io -->
<svg version="1.1" xmlns="http://www.w3.org/2000/svg" width="1024" height="1024" viewBox="0 0 1024 1024">
<title>arrow-left</title>
<path d="M310.613 329.387c5.782 5.789 9.359 13.784 9.359 22.613s-3.576 16.824-9.359 22.614v0l-105.387 105.387h690.773c17.673 0 32 14.327 32 32s-14.327 32-32 32v0h-690.773l105.387 105.387c5.787 5.787 9.367 13.782 9.367 22.613 0 17.662-14.318 31.98-31.98 31.98-8.831 0-16.826-3.579-22.613-9.367v0l-160-160c-5.782-5.789-9.359-13.784-9.359-22.613s3.576-16.824 9.359-22.614v0l160-160c5.789-5.782 13.784-9.359 22.613-9.359s16.824 3.576 22.614 9.359v0z"></path>
</svg>
