<!-- Generated by IcoMoon.io -->
<svg version="1.1" xmlns="http://www.w3.org/2000/svg" width="1024" height="1024" viewBox="0 0 1024 1024">
<title>calendar</title>
<path fill="none" stroke="#407bff" strokeLinejoin="round" strokeLinecap="round" strokeMiterlimit="4" strokeWidth="51.2" d="M288 128v96M736 128v96M128 800v-480c0-53.019 42.981-96 96-96v0h576c53.019 0 96 42.981 96 96v0 480M128 800c0 53.019 42.981 96 96 96v0h576c53.019 0 96-42.981 96-96v0M128 800v-320c0-53.019 42.981-96 96-96v0h576c53.019 0 96 42.981 96 96v0 320M512 544h0.333v0.333h-0.333v-0.333zM512 640h0.333v0.333h-0.333v-0.333zM512 736h0.333v0.333h-0.333v-0.333zM416 640h0.333v0.333h-0.333v-0.333zM416 736h0.333v0.333h-0.333v-0.333zM320 640h0.333v0.333h-0.333v-0.333zM320 736h0.333v0.333h-0.333v-0.333zM608 544h0.333v0.333h-0.333v-0.333zM608 640h0.333v0.333h-0.333v-0.333zM608 736h0.333v0.333h-0.333v-0.333zM704 544h0.333v0.333h-0.333v-0.333zM704 640h0.333v0.333h-0.333v-0.333z"></path>
</svg>
