<svg
          xmlns="http://www.w3.org/2000/svg"
          width="36"
          height="36"
          
        >
          <path d="M6.261 3.13 8.4 32.79v.08h18.412l2.139-29.646V3.13H6.26ZM26.056 32.04H9.162L7.558 9.824h.882l1.45 19.578c.009.103.055.199.13.27.074.07.172.11.274.11h.034a.401.401 0 0 0 .356-.279.414.414 0 0 0 .02-.159L9.252 9.824H27.66l-1.604 22.215Zm1.66-23.046H9.19l-.318-4.328a.423.423 0 0 0-.137-.274.412.412 0 0 0-.284-.107.413.413 0 0 0-.276.146.425.425 0 0 0-.1.299l.319 4.27h-.893l-.364-5.043h20.944l-.364 5.037Z" />
          <path d="M12.78 13.932c.265 0 .525-.08.745-.23.221-.149.393-.362.495-.61a1.38 1.38 0 0 0-.291-1.485 1.325 1.325 0 0 0-1.463-.295 1.346 1.346 0 0 0-.602.502 1.376 1.376 0 0 0 .166 1.72c.252.255.594.398.95.398Zm0-1.898a.524.524 0 0 1 .488.331.544.544 0 0 1-.114.585.527.527 0 0 1-.903-.38.54.54 0 0 1 .155-.38c.099-.1.233-.156.374-.156ZM12.774 18.358c.003.268.085.53.235.752.15.222.36.394.607.494a1.324 1.324 0 0 0 1.457-.309 1.38 1.38 0 0 0 .28-1.484 1.357 1.357 0 0 0-.497-.607 1.329 1.329 0 0 0-1.697.182 1.363 1.363 0 0 0-.385.972Zm1.866 0a.542.542 0 0 1-.327.495.522.522 0 0 1-.577-.116.54.54 0 0 1 .374-.916c.14 0 .275.057.375.157.099.1.155.237.155.38ZM22.313 18.392c.265 0 .525-.08.746-.23.22-.149.392-.361.494-.61a1.38 1.38 0 0 0-.29-1.484 1.325 1.325 0 0 0-1.463-.295 1.347 1.347 0 0 0-.603.501 1.376 1.376 0 0 0 .167 1.72c.251.255.593.398.949.398Zm0-1.892a.524.524 0 0 1 .49.332.543.543 0 0 1-.118.586.527.527 0 0 1-.901-.387.54.54 0 0 1 .157-.376.525.525 0 0 1 .372-.155ZM17.637 15.825c.266 0 .525-.08.746-.23.22-.15.393-.362.495-.611a1.38 1.38 0 0 0-.291-1.484 1.326 1.326 0 0 0-1.463-.295 1.346 1.346 0 0 0-.603.501 1.376 1.376 0 0 0 .167 1.72c.252.255.593.399.95.399Zm0-1.899a.524.524 0 0 1 .489.332.543.543 0 0 1-.115.584.527.527 0 0 1-.576.117.53.53 0 0 1-.327-.496.546.546 0 0 1 .145-.398.528.528 0 0 1 .384-.168v.03ZM15.078 23.545c.005.221.075.436.2.617s.3.321.504.402a1.093 1.093 0 0 0 1.199-.262 1.13 1.13 0 0 0 .228-1.223 1.122 1.122 0 0 0-.409-.5 1.097 1.097 0 0 0-.613-.188 1.13 1.13 0 0 0-.786.348 1.163 1.163 0 0 0-.323.806Zm1.109-.3a.293.293 0 0 1 .273.185.304.304 0 0 1-.064.327.295.295 0 0 1-.322.065.297.297 0 0 1-.183-.277c0-.08.031-.156.087-.212a.293.293 0 0 1 .209-.088ZM20.441 22.293c.228.008.453-.054.646-.177s.345-.302.436-.514a1.17 1.17 0 0 0-.234-1.274 1.132 1.132 0 0 0-1.254-.25c-.21.09-.387.242-.51.437a1.166 1.166 0 0 0 .147 1.436c.204.21.48.332.77.342Zm0-1.425c.079 0 .154.031.21.088a.303.303 0 0 1 0 .424.294.294 0 0 1-.42 0 .308.308 0 0 1-.091-.212.305.305 0 0 1 .089-.215.294.294 0 0 1 .212-.085ZM22.785 12.98c.225 0 .445-.068.632-.194a1.15 1.15 0 0 0 .42-.518 1.17 1.17 0 0 0-.247-1.258 1.123 1.123 0 0 0-1.24-.25 1.142 1.142 0 0 0-.51.425 1.166 1.166 0 0 0 .14 1.457c.214.216.503.338.805.338Zm0-1.425a.291.291 0 0 1 .26.049.298.298 0 0 1 .117.24.304.304 0 0 1-.117.239.294.294 0 0 1-.26.049.291.291 0 0 1-.26-.05.298.298 0 0 1-.117-.239.304.304 0 0 1 .118-.24.294.294 0 0 1 .26-.048ZM11.665 30.59a.41.41 0 0 0-.218.247.422.422 0 0 0 .03.33.419.419 0 0 0 .364.225.382.382 0 0 0 .182-.04 12.27 12.27 0 0 1 5.614-1.385c2.067.03 4.104.496 5.984 1.368a.405.405 0 0 0 .465-.061.416.416 0 0 0 .104-.464.425.425 0 0 0-.216-.231 15.518 15.518 0 0 0-6.337-1.443c-2.076.002-4.122.5-5.972 1.454Z" />
        </svg>