<!-- Generated by IcoMoon.io -->
<svg version="1.1" xmlns="http://www.w3.org/2000/svg" width="1024" height="1024" viewBox="0 0 1024 1024">
<title>delete</title>
<path fill="none" strokeLinejoin="round" strokeLinecap="round" strokeMiterlimit="4" strokeWidth="42.6667" d="M628.907 384l-14.763 384M409.856 768l-14.763-384M820.395 247.040c14.592 2.219 29.099 4.565 43.605 7.083M820.395 247.040l-45.568 592.341c-3.952 49.747-45.294 88.619-95.716 88.619-0.010 0-0.020 0-0.030 0h-334.164c-0.008 0-0.018 0-0.028 0-50.422 0-91.764-38.872-95.694-88.283l-0.021-0.336-45.568-592.341M820.395 247.040c-38.791-6.358-89.724-12.366-141.193-16.476l-7.202-0.463M203.605 247.040c-25.242 3.599-40.074 6.065-54.844 8.706l11.239-1.666M203.605 247.040c38.789-6.358 89.722-12.366 141.19-16.476l7.205-0.463M672 230.101v-39.083c0-50.347-38.827-92.331-89.173-93.909-21.11-0.721-45.921-1.132-70.827-1.132-24.908 0-49.719 0.411-74.428 1.226l3.602-0.094c-50.347 1.579-89.173 43.605-89.173 93.909v39.083M672 230.101c-47.901-3.932-103.689-6.173-160-6.173-56.31 0-112.097 2.241-167.276 6.64l7.276-0.466"></path>
</svg>
