<!-- Generated by IcoMoon.io -->
<svg version="1.1" xmlns="http://www.w3.org/2000/svg" width="1024" height="1024" viewBox="0 0 1024 1024">
<title>edit</title>
<path fill="none" strokeLinejoin="round" strokeLinecap="round" strokeMiterlimit="4" strokeWidth="42.6667" d="M719.445 191.445l71.979-72.021c14.479-14.479 34.482-23.435 56.576-23.435 44.189 0 80.011 35.822 80.011 80.011 0 22.094-8.955 42.097-23.435 56.576l-453.077 453.077c-21.936 21.924-49.153 38.567-79.579 47.856l-1.36 0.357-114.56 34.133 34.133-114.56c9.647-31.785 26.289-59.002 48.214-80.94l381.098-381.055zM719.445 191.445l112.555 112.555M768 597.333v202.667c0 53.019-42.981 96-96 96v0h-448c-53.019 0-96-42.981-96-96v0-448c0-53.019 42.981-96 96-96v0h202.667"></path>
</svg>
