<!-- Generated by IcoMoon.io -->
<svg version="1.1" xmlns="http://www.w3.org/2000/svg" width="1024" height="1024" viewBox="0 0 1024 1024">
  <title>hide-pass</title>
  <path fill="none" strokeLinejoin="round" strokeLinecap="round" strokeMiterlimit="4" strokeWidth="42.6667" d="M169.813 350.848c-38.487 45.196-68.411 98.997-86.462 157.985l-0.834 3.167c55.125 185.088 226.56 320 429.483 320 42.368 0 83.328-5.888 122.155-16.853M265.728 265.728c69.124-46.2 154.138-73.729 245.582-73.729 0.243 0 0.486 0 0.729 0.001h-0.038c202.923 0 374.315 134.912 429.44 319.915-31.52 103.286-96.252 188.504-181.525 245.327l-1.643 1.030M265.728 265.728l-137.728-137.728M265.728 265.728l155.733 155.733M758.272 758.272l137.728 137.728M758.272 758.272l-155.733-155.733c23.611-23.235 38.241-55.536 38.241-91.254 0-70.692-57.308-128-128-128-35.707 0-68 14.621-91.217 38.203l-0.016 0.016M602.539 602.496l-180.949-180.949"></path>
</svg>