<!-- Generated by IcoMoon.io -->
<svg version="1.1" xmlns="http://www.w3.org/2000/svg" width="2176" height="1024" viewBox="0 0 2176 1024">
<title>logo</title>
<path fill="#9ebbff" d="M337.493 156.117c14.357-11.307 32.512 13.184 34.432 35.776 1.92 22.613-18.176 73.472-74.603 86.635-56.405 13.184-63.104 48.021-61.205 68.757 1.92 20.693-7.637 43.307-27.733 38.613-20.075-4.693-21.973-35.797-3.819-65.003 18.176-29.227 64.064-55.552 71.723-71.573 7.659-16 1.92-34.837 17.216-41.429s35.371 10.368 33.472 26.389c0 0 15.296-15.061 13.376-37.675-1.259-14.827-10.069-34.816-2.859-40.491zM708.523 293.611c5.333-15.083 43.029-6.592 51.627 14.123 8.619 20.715 5.76 36.736 14.357 50.859s-15.296 37.653-33.003 34.837c-17.707-2.816-11.008-34.837-11.008-48.96s-30.571-26.389-21.973-50.859zM588.992 115.797c13.077-11.52 41.109 8.32 48.768 24.32s0.96 58.368-22.485 57.429c-23.424-0.939-14.101-34.069-22.464-40.96-14.805-12.245-14.336-31.552-3.84-40.789zM427.563 17.707c9.28 14.357 2.368 33.877-21.205 38.293-23.595 4.395-28.053-15.083-40.811-10.667-12.757 4.395-26.795 7.509-32.512-2.539-5.717-10.027 0.64-25.109 26.133-25.109s51.349-26.368 68.395 0zM279.168 154.965c11.093 0 20.075-9.536 20.075-21.312 0-11.755-8.981-21.291-20.075-21.291s-20.075 9.536-20.075 21.291c0 11.776 8.96 21.312 20.053 21.312zM192.043 225.493c-7.125-3.541-30.507 33.259-14.571 37.653 15.936 4.416 25.984-32 14.571-37.653zM129.664 334.72s31.232 16.96 19.755 51.797c-11.477 34.837-36.331 30.443-43.968 19.776-7.68-10.667-7.659-25.109 5.099-35.179 12.736-10.069 19.115-36.395 19.115-36.395zM792.683 522.432s9.557 14.144 4.779 39.552c-4.779 25.387-12.416 75.307 14.336 89.451 26.773 14.144 37.312-35.776 26.795-50.837-10.496-15.061 5.739-66.88-45.909-78.165zM826.624 749.376c11.371 0 20.565-10.965 20.565-24.491s-9.195-24.491-20.565-24.491c-11.349 0-20.544 10.965-20.544 24.491s9.195 24.491 20.565 24.491zM20.011 758.784c17.728-9.045 32.512 5.653 34.432 32.96s27.733 50.859 14.336 64.981c-13.397 14.123-28.949-44.267-41.109-49.685-18.667-8.32-33.493-35.072-7.659-48.256z"></path>
<path fill="#9ebbff" d="M773.013 786.091c-16.683 16.96 5.525 34.517-33.877 79.104-16.427 18.56 12.096 74.091-66.944 73.451 0 0-45.909 41.429-91.819 47.083-45.909 5.675-65.024-1.877-109.013 22.613s-141.525-16.96-181.696-34.837c-40.171-17.899-55.467-19.797-89.877-19.797s-21.035-52.736-45.909-75.328c-24.875-22.613-53.547-32-55.467-52.715s-21.035-30.144-19.115-62.165c1.92-32.043-30.613-41.429-34.432-81.003-3.797-39.552 17.195-47.061 9.557-69.675-7.659-22.613-9.557-41.408 1.92-64.021 1.515-3.019 3.089-5.589 4.85-8.016l-0.114 0.165c9.813-13.803 19.264-12.715 25.856-35.456 7.659-26.389-13.376-37.675 9.579-48.981 22.955-11.285 30.613 22.592 17.195 56.512-13.397 33.92-30.613 65.92-7.637 71.552 22.955 5.653 17.216-64.021 47.829-96.043 30.592-32.043 17.216-39.552 57.365-71.573s43.989-18.816 57.387-52.736c13.376-33.92 51.157-69.675 89.664-86.635s55.701-24.469 49.963-52.736c-5.76-28.267 26.347-28.245 27.52-58.389s-25.621-50.837-48.555-43.307c-22.955 7.531-45.909 7.531-38.272-16.939 7.68-24.469 55.829-22.613 78.592-11.307 22.763 11.285 41.92-16.939 72.533 11.307 30.592 28.245 70.741 37.675 65.003 103.595-5.717 65.941-11.456 88.512 13.397 92.288s3.84-30.144 3.84-56.491c0-26.368 43.968-24.491 55.445-3.776 11.456 20.693-3.819 56.491 7.659 69.696 11.456 13.205 32.512 11.285 38.251 30.101 5.717 18.837-3.819 96.064 22.955 113.024 26.752 16.96 21.035-41.429 43.989-23.531 22.955 17.877 28.672 49.877 15.296 81.92-8.939 21.397-9.856 74.837-4.651 120.832 2.517 22.763 6.528 43.733 11.776 58.069 15.787 43.307 16.64 77.184-0.043 94.144z"></path>
<path fill="#c6d7ff" d="M455.979 306.069c50.219-15.616 92.373 70.784 74.88 107.904-17.472 37.12-24.939 151.659 39.957 137.408 64.896-14.229 17.493-124.373 52.416-122.155 34.944 2.219 19.968 102.997 42.453 134.955 22.464 31.957 99.968 250.752-24.917 326.955s-301.611 73.749-369.28 17.195c-23.887-19.807-44.243-42.762-60.734-68.436l-0.706-1.175c-5.161-7.828-9.823-16.809-13.525-26.272l-0.342-0.992c-6.080-16.384-5.013-22.144-11.157-38.592-4.434-11.569-9.615-21.524-15.761-30.782l0.359 0.574c-13.504-20.416-19.627-18.027-32.235-35.819-4.203-5.931-17.579-25.984-18.816-53.013-0.32-7.083-1.237-26.837 7.317-30.379 9.664-3.968 22.187 16.64 35.029 12.373 6.72-2.261 9.643-10.027 11.499-14.933 5.419-14.421 0-23.36-2.624-44.757-2.005-16.555-4.416-36.48 5.44-53.269 1.621-2.752 6.272-11.733 21.717-20.117 54.315-29.504 103.104-2.453 138.624-56.533 35.52-54.101 36.224-57.643 69.568-71.851 33.365-14.208 3.413-53.547 50.837-68.288z"></path>
<path fill="#407bff" d="M436.053 1024c-35.456 0-84.992-14.315-149.76-43.157-39.467-17.6-53.461-19.072-86.507-19.072-26.133 0-31.701-23.467-36.181-42.325-3.179-13.333-6.443-27.115-15.275-35.136-8.235-7.488-16.853-13.397-25.152-19.136-16.811-11.563-31.317-21.547-32.917-38.805-0.64-6.827-3.797-12.48-7.467-19.029-5.76-10.325-12.949-23.147-11.691-44.331 0.789-13.141-5.547-21.675-13.525-32.491-8.789-11.861-18.752-25.301-20.864-47.253-2.176-22.485 3.029-35.541 7.189-46.059 3.413-8.576 5.483-13.76 2.752-21.845-6.912-20.416-11.413-43.051 2.347-70.187 5.803-11.413 11.925-16.768 16.853-21.077 5.568-4.907 9.6-8.427 13.184-20.843 2.667-9.173 1.173-15.936-0.299-22.485-2.176-9.856-4.907-22.144 14.080-31.488 9.536-4.693 18.88-3.904 25.621 2.133 12.16 10.88 13.355 38.016 2.901 64.512-1.835 4.651-3.733 9.259-5.611 13.76-7.253 17.6-15.488 37.483-11.904 44.437 0.277 0.533 0.939 1.813 4.224 2.624 0.192 0.064 0.384 0.085 0.597 0.064 3.691-1.28 8.149-18.859 10.816-29.376 5.333-21.013 11.989-47.232 28.437-64.427 8.506-8.61 15.728-18.515 21.338-29.387l0.315-0.672c6.4-11.84 12.459-23.083 36.544-42.261 15.339-12.245 25.536-18.069 33.003-22.357 11.435-6.528 14.507-8.299 21.909-27.051 13.973-35.413 52.608-72.853 93.952-91.051l0.171-0.085c40.085-17.664 49.387-22.613 45.099-43.733-3.84-18.901 6.208-28.736 14.293-36.629 6.784-6.613 12.629-12.331 13.077-23.616 0.469-12.373-4.821-23.872-14.165-30.784-7.36-5.419-15.957-7.104-23.616-4.587-14.72 4.843-34.389 8.491-44.757-1.472-4.16-4.011-8.235-11.691-3.925-25.493 2.773-8.853 9.6-15.787 19.733-20.053 20.907-8.789 52.8-4.779 70.379 3.925 6.293 3.136 12.267 2.027 21.44-0.021 14.080-3.157 31.637-7.061 52.971 12.629 6.485 5.995 13.653 11.264 20.565 16.341 25.493 18.731 51.883 38.123 47.019 93.824-0.704 8.235-1.429 15.808-2.091 22.763-4.949 52.139-3.968 58.965 8.576 60.864 0.875 0.149 1.771 0.213 2.667 0.192 0.533-3.413-1.749-12.523-3.285-18.752-2.347-9.344-4.992-19.925-4.992-29.995 0-13.056 8.149-22.933 21.781-26.347 16.341-4.096 39.744 1.92 49.067 18.731 6.933 12.544 5.781 28.48 4.757 42.539-0.725 10.197-1.579 21.76 1.92 25.771 3.563 4.096 8.875 6.485 14.507 9.045 9.344 4.203 20.928 9.451 25.387 24 2.048 6.827 2.368 18.24 2.773 32.661 0.747 26.453 1.856 66.453 16.747 75.883 2.709 1.707 4.267 1.941 4.757 1.813 2.197-0.64 5.312-7.317 7.168-11.307 3.563-7.637 7.595-16.32 16.256-18.368 5.248-1.237 10.795 0.384 16.448 4.779 25.621 19.989 32.64 55.829 17.792 91.307-12.288 29.44-8.021 131.349 7.253 173.141 17.557 48 16.917 83.435-1.835 102.507-4.331 4.395-4.8 8.405-5.461 16.981-1.045 13.845-2.496 32.789-28.117 61.803-3.2 3.627-3.968 11.413-4.779 19.669-2.197 22.336-5.504 55.872-65.237 56.533-10.368 8.832-51.541 41.813-93.888 47.019-13.013 1.6-24 2.176-33.707 2.688-24.491 1.28-42.176 2.176-72.299 18.944-10.368 5.76-23.445 8.661-39.381 8.661zM104.811 462.379c-1.721 0.101-3.309 0.587-4.705 1.372l0.055-0.028c-7.595 3.733-7.381 4.672-5.397 13.611 1.621 7.296 3.84 17.28 0.043 30.357-4.907 16.917-11.605 22.784-18.069 28.459-4.48 3.904-8.683 7.595-13.077 16.256-10.517 20.715-8.363 37.504-1.472 57.877 4.608 13.611 0.725 23.381-3.029 32.811-3.733 9.387-7.957 19.989-6.144 38.656 1.707 17.536 9.877 28.587 17.792 39.275 8.747 11.819 17.771 24.021 16.64 42.944-0.981 16.533 4.203 25.792 9.707 35.605 4.181 7.445 8.491 15.147 9.429 25.344 0.896 9.792 11.968 17.408 25.984 27.051 8.363 5.739 17.835 12.267 26.88 20.48 12.523 11.392 16.555 28.373 20.096 43.307 5.056 21.248 8.299 29.888 20.245 29.888 34.304 0 51.243 1.771 93.269 20.48 109.013 48.576 154.944 45.952 174.293 35.2 33.451-18.624 53.76-19.691 79.488-21.013 9.429-0.491 20.096-1.045 32.533-2.56 42.816-5.291 86.848-44.651 87.275-45.035 1.515-1.365 3.499-2.133 5.547-2.133h0.064c47.787 0.384 49.728-19.243 51.968-41.963 1.067-10.88 2.091-21.184 8.747-28.715 22.037-24.96 23.189-40.171 24.128-52.395 0.683-8.96 1.387-18.219 10.027-27.029 13.696-13.909 13.035-45.184-1.813-85.824-16.896-46.187-20.864-151.488-6.997-184.704 11.989-28.672 6.976-57.131-12.8-72.533-0.728-0.608-1.556-1.136-2.448-1.55l-0.069-0.029c-1.515 1.451-3.755 6.272-5.141 9.237-3.797 8.149-8.107 17.365-17.451 20.053-5.632 1.621-11.755 0.384-18.219-3.712-22.187-14.037-23.317-55.616-24.256-89.003-0.341-12.181-0.64-23.701-2.133-28.48-2.176-7.211-7.424-9.877-16.469-13.973-6.677-3.029-14.229-6.443-20.139-13.227-7.872-9.024-6.869-22.827-5.803-37.397 0.896-12.416 1.835-25.259-2.816-33.643-5.163-9.301-20.416-13.397-30.635-10.837-9.451 2.389-9.451 8.661-9.451 10.731 0 8.107 2.389 17.685 4.501 26.133 3.541 14.101 6.571 26.261-0.448 33.835-3.84 4.139-9.685 5.653-17.323 4.501-29.376-4.437-27.051-29.12-22.379-78.293 0.64-6.891 1.365-14.443 2.091-22.656 4.053-46.763-15.616-61.227-40.512-79.509-7.275-5.355-14.805-10.88-21.973-17.493-14.997-13.867-25.237-11.563-38.144-8.683-9.621 2.133-20.565 4.587-32.427-1.28-14.080-6.997-40.768-10.133-56.597-3.499-5.632 2.368-9.173 5.717-10.475 9.941-1.408 4.501-1.515 8.021-0.299 9.216 2.176 2.091 11.456 3.2 28.139-2.283 12.821-4.224 26.901-1.664 38.613 6.976 13.653 10.091 21.397 26.645 20.693 44.288-0.661 17.643-10.219 26.987-17.877 34.475-8.043 7.829-11.797 12.053-9.771 22.016 6.976 34.517-16.128 44.736-54.464 61.611l-0.192 0.064c-37.12 16.341-73.003 50.923-85.376 82.197-9.109 23.083-15.083 27.221-28.928 35.157-6.997 4.011-16.576 9.493-30.933 20.928-21.461 17.131-26.517 26.475-32.363 37.312-6.648 12.862-14.713 23.903-24.207 33.53l0.015-0.016c-13.525 14.144-19.584 38.080-24.448 57.301-2.859 11.264-5.333 20.992-8.896 28.245-7.040 14.208-17.067 14.144-22.4 12.8-8.704-2.133-12.885-7.147-14.848-10.965-6.976-13.525 1.515-34.027 11.349-57.813 1.835-4.437 3.712-8.96 5.504-13.525 9.003-22.805 6.507-42.112 1.323-46.763-0.627-0.598-1.477-0.966-2.414-0.966-0.074 0-0.147 0.002-0.22 0.007h0.010z"></path>
<path fill="#407bff" d="M213.632 392.576c-2.24 0-4.48-0.277-6.656-0.811-8.317-2.009-14.947-7.851-18.008-15.506l-0.061-0.174c-6.443-15.275-2.453-37.653 10.432-58.347 10.475-16.811 28.928-32.107 45.227-45.611 11.947-9.941 23.275-19.307 26.155-25.365 2.496-5.227 3.413-11.093 4.267-16.789 1.6-10.389 3.413-22.165 16.064-27.605 8.64-3.733 19.136-2.069 28.075 4.437 4.501 3.264 8.192 7.509 10.773 12.416 2.773-5.675 5.099-13.269 4.352-22.123-0.688-5.766-1.662-10.864-2.953-15.833l0.18 0.815c-2.901-12.608-5.611-24.533 2.176-30.699 3.143-2.602 7.216-4.18 11.658-4.18 2.749 0 5.357 0.605 7.698 1.688l-0.114-0.047c12.523 5.312 23.573 24 25.152 42.539 2.091 24.683-19.627 79.083-79.296 93.013-53.035 12.416-58.155 44.373-56.512 62.336 1.515 16.384-3.477 32.064-12.693 39.936-4.395 3.84-10.069 5.931-15.915 5.909zM300.736 212.501c-0.036 0-0.079-0.001-0.122-0.001-1.681 0-3.282 0.345-4.734 0.969l0.078-0.030c-6.144 2.645-7.253 8.107-8.811 18.347-0.96 6.229-2.048 13.291-5.291 20.117-4.053 8.448-15.232 17.728-29.397 29.483-15.573 12.907-33.237 27.541-42.667 42.688-10.517 16.917-14.357 35.968-9.536 47.403 1.941 4.629 5.163 7.509 9.557 8.533 4.629 1.088 8.448 0.277 11.669-2.475 6.251-5.333 9.685-17.259 8.533-29.696-1.621-17.579 1.557-60.139 65.899-75.179 52.48-12.267 71.68-59.072 69.888-80.235-1.28-15.232-10.411-29.333-17.771-32.448-0.792-0.415-1.731-0.659-2.727-0.659-1.528 0-2.922 0.574-3.978 1.517l0.006-0.005c-1.685 2.005 0.789 12.8 2.112 18.624 1.28 5.547 2.56 11.307 3.029 16.661 2.133 25.109-14.464 41.749-15.147 42.453-1.11 1.069-2.622 1.727-4.288 1.727-3.417 0-6.187-2.77-6.187-6.187 0-0.18 0.008-0.358 0.023-0.534l-0.002 0.023c0.683-5.76-2.965-12.587-9.067-17.067-3.031-2.386-6.863-3.879-11.038-4.031l-0.034-0.001zM744.619 399.701c-1.365 0-2.731-0.107-4.075-0.32-19.819-3.157-17.92-28.587-16.683-45.44 0.277-3.584 0.512-6.955 0.512-9.493 0-3.243-4.245-7.979-8.341-12.587-8.32-9.28-19.712-22.016-13.312-40.235 2.517-7.189 9.664-11.477 19.605-11.733 15.659-0.384 36.736 9.237 43.52 25.557 4.352 10.453 5.931 19.733 7.339 27.904 1.429 8.405 2.667 15.659 6.613 22.101 4.373 7.189 3.349 16.427-2.795 25.387-6.784 9.877-19.627 18.859-32.384 18.859zM723.349 291.968h-0.704c-2.133 0.085-7.253 0.533-8.32 3.605-3.776 10.752 1.877 18.197 10.923 28.288 5.867 6.571 11.413 12.757 11.413 20.565 0 2.987-0.256 6.571-0.555 10.389-0.917 12.437-2.325 31.232 6.4 32.64 7.488 1.173 18.411-4.821 24.32-13.397 1.579-2.304 5.013-8.149 2.411-12.395-5.12-8.405-6.613-17.109-8.171-26.325-1.365-7.936-2.773-16.128-6.613-25.344-4.459-10.752-19.776-18.005-31.104-18.005zM616.085 203.627l-1.045-0.021c-20.181-0.811-22.443-19.883-23.787-31.253-0.448-3.733-1.173-9.941-2.411-11.157-8.491-6.997-13.44-16.875-13.611-27.093-0.149-8.96 3.371-17.28 9.664-22.827 5.056-4.437 11.861-5.931 19.691-4.373 15.936 3.2 32.896 18.432 38.741 30.635 5.952 12.459 4.8 37.973-5.675 53.525-5.547 8.235-12.992 12.565-21.568 12.565zM598.805 118.4c-0.116-0.006-0.253-0.009-0.39-0.009-2.033 0-3.895 0.729-5.34 1.94l0.013-0.011c-3.453 3.215-5.605 7.787-5.605 12.861 0 0.264 0.006 0.526 0.017 0.787l-0.001-0.037c0.107 6.784 3.413 13.184 9.259 18.027 4.907 4.053 5.76 11.307 6.699 18.987 1.621 13.717 3.349 20.224 12.096 20.587 4.629 0.192 8.512-2.155 11.861-7.168 7.765-11.52 9.152-32.555 4.8-41.664-4.48-9.344-18.261-21.547-30.080-23.915-0.992-0.225-2.138-0.364-3.313-0.384h-0.015zM399.595 62.699c-10.88 0-17.771-4.693-23.061-8.32-4.992-3.413-6.571-4.181-8.96-3.349-9.216 3.179-30.827 10.624-39.893-5.248-1.717-2.904-2.731-6.399-2.731-10.131 0-3.821 1.063-7.393 2.909-10.438l-0.051 0.090c2.987-5.12 11.093-13.653 31.36-13.653 7.765 0 16.085-2.987 24.128-5.845 15.893-5.653 35.669-12.693 49.451 8.64 5.568 8.64 6.485 18.731 2.539 27.733-4.437 10.091-14.571 17.28-27.797 19.755-2.367 0.476-5.094 0.755-7.883 0.768h-0.011zM369.216 38.613c5.824 0 10.432 3.157 14.315 5.824 5.717 3.904 11.093 7.573 21.675 5.611 9.301-1.728 15.979-6.229 18.795-12.672 0.873-1.987 1.381-4.304 1.381-6.739 0-3.62-1.123-6.978-3.040-9.745l0.037 0.057c-8.107-12.587-17.557-9.941-34.901-3.755-9.045 3.243-18.411 6.571-28.309 6.571-10.304 0-17.877 2.773-20.757 7.637-0.735 1.206-1.169 2.664-1.169 4.224s0.435 3.018 1.19 4.26l-0.021-0.036c2.773 4.864 10.517 4.8 25.131-0.213 1.686-0.626 3.633-0.999 5.664-1.024h0.011zM279.168 161.003c-14.464 0-26.24-12.267-26.24-27.349s11.776-27.349 26.24-27.349c14.464 0 26.219 12.267 26.219 27.349s-11.755 27.349-26.24 27.349zM279.168 118.4c-7.68 0-13.952 6.848-13.952 15.253s6.251 15.253 13.952 15.253c7.68 0 13.931-6.827 13.931-15.253 0-8.405-6.251-15.253-13.931-15.253zM180.224 269.589c-1.493 0-2.987-0.213-4.395-0.619-4.972-1.284-8.741-5.311-9.631-10.332l-0.012-0.078c-2.261-11.84 8.939-30.293 17.323-36.501 5.056-3.755 8.939-3.157 11.307-1.963 9.813 4.864 10.048 19.84 5.205 32.149-4.331 11.051-11.691 17.344-19.797 17.344zM190.165 232.213c-4.501 3.797-12.373 16.171-11.989 23.36 0.085 1.536 0.384 1.6 0.96 1.749 3.541 1.003 7.381-4.224 9.451-9.451 2.731-6.997 2.517-13.056 1.579-15.659zM121.472 420.032c-8.341 0-16.469-3.861-21.056-10.24-10.368-14.464-7.765-32.299 6.293-43.371 9.067-7.147 15.339-26.325 16.981-33.109 0.461-1.866 1.747-3.362 3.439-4.102l0.039-0.015c0.736-0.331 1.596-0.524 2.5-0.524 1.076 0 2.089 0.273 2.972 0.753l-0.033-0.016c12.352 6.72 32.96 27.648 22.656 58.965-8.107 24.619-22.187 30.208-29.867 31.36-1.28 0.192-2.603 0.299-3.925 0.299zM133.077 344.704c-3.179 9.301-9.323 23.744-18.709 31.147-10.965 8.64-8.96 19.904-3.904 26.944 2.582 3.158 6.478 5.158 10.842 5.158 0.805 0 1.594-0.068 2.361-0.199l-0.083 0.012c8.405-1.259 15.509-9.472 19.989-23.125 6.699-20.267-3.264-33.451-10.496-39.936zM820.864 659.968c-4.397-0.080-8.502-1.257-12.075-3.266l0.129 0.066c-28.971-15.296-23.851-62.037-17.493-95.893 4.224-22.4-3.755-34.987-3.84-35.093-0.648-0.941-1.035-2.106-1.035-3.36 0-2.552 1.6-4.73 3.853-5.586l0.041-0.014c0.677-0.276 1.463-0.436 2.285-0.436 0.46 0 0.908 0.050 1.34 0.145l-0.041-0.008c40.64 8.896 43.819 41.067 45.909 62.336 0.789 7.765 1.493 15.104 3.733 18.304 9.045 12.949 5.696 41.771-6.4 55.061-4.651 5.12-10.325 7.744-16.405 7.744zM803.051 532.181c1.856 7.424 2.901 17.835 0.448 30.891-8.747 46.571-4.971 74.496 11.2 83.029 5.44 2.88 9.6 2.304 13.44-1.92 8.747-9.664 10.709-32.512 5.376-40.149-4.011-5.76-4.843-14.208-5.824-23.979-1.771-18.048-3.755-38.165-24.64-47.872zM826.624 755.413c-14.72 0-26.688-13.696-26.688-30.528 0-16.853 11.968-30.528 26.688-30.528s26.709 13.696 26.709 30.528c0 16.853-11.989 30.528-26.709 30.528zM826.624 706.453c-7.957 0-14.421 8.256-14.421 18.432s6.464 18.432 14.421 18.432c7.957 0 14.421-8.256 14.421-18.432s-6.464-18.432-14.421-18.432zM64.427 864.96c-0.018 0-0.038 0-0.059 0-0.551 0-1.093-0.039-1.623-0.114l0.061 0.007c-9.707-1.408-16.619-15.061-24.597-30.891-3.755-7.445-10.048-19.904-13.099-21.397-14.165-6.336-24.683-20.48-25.109-33.621-0.277-10.667 5.824-19.733 17.173-25.536 8.448-4.309 17.173-4.437 24.576-0.341 10.667 5.888 17.493 19.84 18.795 38.272 0.747 10.475 5.44 20.48 9.984 30.187 6.528 13.867 13.248 28.224 2.731 39.317-2.158 2.486-5.306 4.064-8.823 4.117h-0.009zM30.187 762.176c-2.71 0.075-5.234 0.801-7.443 2.026l0.083-0.042c-7.147 3.648-10.688 8.512-10.539 14.443 0.235 8.491 8.107 18.56 17.92 22.933 6.549 2.944 11.499 12.203 18.987 27.051 3.947 7.765 11.093 21.952 15.019 24.107l0.085-0.085c4.651-4.907 1.173-13.077-4.907-26.005-4.757-10.176-10.176-21.739-11.072-34.432-0.981-14.080-5.675-24.747-12.587-28.565-1.583-0.899-3.478-1.429-5.497-1.429-0.017 0-0.035 0-0.052 0h0.003zM485.781 693.333c4.907 24.064-10.773 49.365-33.451 58.88-31.744 14.251-71.595-2.517-81.173-35.861-1.294-4.161-2.039-8.945-2.039-13.904 0-3.224 0.315-6.374 0.916-9.422l-0.051 0.307c0.175-0.824 0.617-1.524 1.231-2.022l0.007-0.005c0.618-0.504 1.415-0.809 2.283-0.809 1.692 0 3.113 1.158 3.514 2.725l0.005 0.025c5.205 24.469 25.856 42.773 50.517 42.517 24.491-0.171 44.565-18.24 49.835-42.432 0.875-4.48 7.531-4.416 8.384 0h0.021z"></path>
<path fill="#fff" opacity="0.5" d="M210.965 730.155c22.144-4.181 35.691-30.165 30.272-58.027-5.419-27.904-27.755-47.125-49.899-42.965-22.123 4.181-35.669 30.165-30.251 58.027 5.397 27.904 27.733 47.125 49.877 42.965zM212.16 601.557c22.891 7.040 45.867-66.773 86.4-83.456 40.555-16.704 67.285-69.227 79.723-103.189 12.437-33.984 63.488-56.149 52.693-79.915-10.773-23.744-57.472-4.629-84.992 31.531-27.52 36.181-15.232 73.92-56.747 89.877-41.493 16-124.437 130.645-77.077 145.152z"></path>
<path fill="#407bff" opacity="0.2" d="M752.149 783.531c-15.68 15.296 5.184 31.147-31.851 71.403-15.424 16.747 11.392 66.901-62.891 66.325 0 0-43.136 37.397-86.293 42.517-43.136 5.12-61.099-1.707-102.443 20.395-41.344 22.123-133.035-15.296-170.795-31.445-37.76-16.171-52.096-17.856-84.459-17.856-32.341 0-19.755-47.637-43.136-68.032-23.381-20.416-50.347-28.907-52.139-47.595-1.813-18.709-19.776-27.221-17.963-56.107 1.792-28.928-28.779-37.419-32.363-73.131s16.171-42.496 8.96-62.912c-7.168-20.416-8.96-37.397 1.813-57.813 1.28-2.475 2.773-4.843 4.48-7.083 0.427 11.563 1.088 23.147 5.12 30.293 4.139 7.445 9.643 14.293 12.16 22.315 6.528 20.651-8.043 41.643-10.176 63.083-3.947 39.68 33.28 70.4 58.752 102.144 22.656 28.245 38.912 62.997 70.912 81.493 35.605 20.587 81.792 15.296 120.789 1.28 38.997-14.037 74.603-35.947 114.347-48 45.952-14.016 95.275-14.251 143.488-11.861 34.752 1.707 74.411 3.051 98.56-20.587 13.909-13.611 19.477-32.853 23.275-51.435 5.56-25.925 8.743-55.709 8.743-86.237 0-7.801-0.208-15.554-0.619-23.253l0.046 1.074 12.608 23.573c2.368 20.544 6.144 39.467 11.093 52.416 14.848 39.125 15.637 69.717-0.021 85.035z"></path>
<path fill="#407bff" d="M542.144 531.84c26.24-2.645 50.496 25.664 54.144 63.211s-14.677 70.144-40.939 72.789c-26.24 2.624-50.496-25.685-54.144-63.232s14.677-70.123 40.939-72.768z"></path>
<path fill="#fff" d="M544 547.563c8.363 3.456 11.947 16.213 8.043 28.544-3.925 12.331-13.888 19.541-22.272 16.107-8.363-3.456-11.947-16.213-8.043-28.544 3.925-12.331 13.888-19.541 22.251-16.107z"></path>
<path fill="#8baeff" d="M572.139 628.288c3.968 2.901 4.437 9.941 1.067 15.744-3.349 5.803-9.301 8.171-13.269 5.291-3.925-2.88-4.437-9.941-1.067-15.744s9.301-8.171 13.269-5.291z"></path>
<path fill="#407bff" d="M316.949 531.84c-26.24-2.645-50.496 25.664-54.144 63.211s14.677 70.144 40.939 72.789c26.24 2.624 50.496-25.685 54.144-63.232 3.669-37.547-14.677-70.123-40.917-72.768z"></path>
<path fill="#fff" d="M315.093 547.563c-8.341 3.456-11.947 16.213-8.021 28.544s13.867 19.541 22.251 16.107c8.363-3.456 11.947-16.213 8.043-28.544-3.925-12.331-13.867-19.541-22.251-16.107z"></path>
<path fill="#8baeff" d="M286.955 628.288c-3.947 2.901-4.437 9.941-1.067 15.744s9.323 8.171 13.269 5.291 4.437-9.941 1.067-15.744c-3.371-5.803-9.301-8.171-13.269-5.291z"></path>
<path fill="#407bff" d="M1036.288 266.005v181.995h-37.376v-181.995h37.376zM1092.288 266.005v29.376h-148.48v-29.376h148.48zM1113.664 266.005h67.883c13.909 0 25.877 2.069 35.861 6.251 10.091 4.16 17.835 10.325 23.253 18.496s8.128 18.197 8.128 30.123c0 9.749-1.664 18.133-4.992 25.131-3.264 6.912-7.893 12.693-13.867 17.365-5.979 4.581-12.913 8.319-20.399 10.859l-0.507 0.149-11.861 6.251h-58.987l-0.256-29.248h43.861c6.613 0 12.053-1.173 16.384-3.499 4.331-2.347 7.573-5.589 9.749-9.749 2.261-4.181 3.371-9.003 3.371-14.507 0-5.845-1.067-10.88-3.243-15.147-2.194-4.239-5.597-7.594-9.75-9.671l-0.127-0.057c-4.416-2.261-9.963-3.371-16.64-3.371h-30.357v152.619h-37.504v-181.995zM1215.424 448l-41.515-81.131 39.637-0.235 41.984 79.616v1.749h-40.107zM1351.659 297.131l-49.472 150.869h-39.893l67.627-181.995h25.387l-3.627 31.125zM1392.789 448l-49.621-150.869-4.011-31.147h25.643l67.989 182.016h-40zM1390.549 380.245v29.376h-96.128v-29.376h96.128zM1552.917 387.627h37.376c-0.577 12.159-4.273 23.347-10.298 32.921l0.165-0.281c-6.089 9.576-14.527 17.165-24.52 22.072l-0.355 0.158c-10.581 5.333-23.317 8-38.251 8-0.382 0.007-0.833 0.011-1.285 0.011-10.853 0-21.191-2.208-30.588-6.199l0.513 0.193c-9.401-4.168-17.333-10.090-23.696-17.412l-0.069-0.082c-6.518-7.737-11.609-16.918-14.722-26.968l-0.147-0.552c-3.255-10.339-5.13-22.227-5.13-34.554 0-0.55 0.004-1.098 0.011-1.646l-0.001 0.083v-12.629c0-13.333 1.749-25.365 5.248-36.117 3.416-10.649 8.628-19.856 15.346-27.738l-0.093 0.112c6.484-7.383 14.446-13.301 23.441-17.321l0.431-0.172c8.815-3.875 19.091-6.131 29.894-6.131 0.388 0 0.775 0.003 1.162 0.009l-0.058-0.001c15.168 0 27.947 2.752 38.379 8.235 10.496 5.504 18.624 13.099 24.363 22.763 5.845 9.664 9.344 20.672 10.517 33.003h-37.504c-0.218-6.795-1.807-13.167-4.498-18.92l0.124 0.296c-2.429-5.071-6.369-9.092-11.229-11.562l-0.141-0.065c-5.013-2.667-11.669-4.011-20.011-4.011-6.251 0-11.712 1.173-16.363 3.499-4.693 2.347-8.597 5.888-11.755 10.624-3.179 4.757-5.547 10.752-7.125 18.005-1.493 7.168-2.261 15.573-2.261 25.259v12.864c0 9.429 0.704 17.707 2.133 24.875 1.408 7.083 3.584 13.077 6.485 18.005 3.008 4.843 6.827 8.491 11.52 11.008 4.736 2.411 10.453 3.627 17.109 3.627 7.829 0 14.293-1.28 19.371-3.755 5.099-2.496 8.96-6.208 11.627-11.136 2.773-4.907 4.395-11.029 4.885-18.368zM1652.416 266.005v181.995h-37.504v-181.995h37.504zM1761.429 266.005l-72.128 89.877-41.643 44.736-6.741-35.499 28.117-38.485 46.379-60.629h45.995zM1718.763 448l-53.611-84.117 27.733-23.253 70.293 107.371h-44.373zM1899.776 418.752v29.248h-96.875v-29.248h96.853zM1815.147 266.005v181.995h-37.504v-181.995h37.504zM1887.147 340.117v28.501h-84.267v-28.501h84.267zM1899.648 266.005v29.376h-96.747v-29.376h96.747zM1921.643 266.005h67.883c13.909 0 25.877 2.069 35.861 6.251 10.091 4.16 17.835 10.325 23.253 18.496s8.128 18.197 8.128 30.123c0 9.749-1.664 18.133-4.992 25.131-3.264 6.912-7.893 12.693-13.867 17.365-5.979 4.581-12.913 8.319-20.399 10.859l-0.507 0.149-11.861 6.251h-58.987l-0.256-29.248h43.861c6.613 0 12.053-1.173 16.384-3.499 4.331-2.347 7.573-5.589 9.749-9.749 2.261-4.181 3.371-9.003 3.371-14.507 0-5.845-1.067-10.88-3.243-15.147-2.194-4.239-5.597-7.594-9.75-9.671l-0.127-0.057c-4.416-2.261-9.963-3.371-16.64-3.371h-30.357v152.619h-37.504v-181.995zM2023.424 448l-41.515-81.131 39.637-0.235 41.984 79.616v1.749h-40.107zM1104.427 651.413v8.619c0 13.845-1.877 26.24-5.632 37.248-3.6 10.858-9.015 20.23-15.959 28.241l0.087-0.102c-6.827 7.68-14.997 13.547-24.512 17.621-8.951 3.875-19.375 6.13-30.325 6.13-0.364 0-0.727-0.002-1.090-0.007l0.055 0.001c-0.282 0.004-0.614 0.006-0.947 0.006-10.988 0-21.449-2.254-30.947-6.324l0.512 0.195c-9.652-4.225-17.822-10.186-24.455-17.557l-0.057-0.064c-6.933-7.905-12.423-17.274-15.935-27.559l-0.172-0.58c-3.755-10.987-5.632-23.403-5.632-37.248v-8.619c0-13.909 1.877-26.325 5.632-37.248 3.603-10.849 9.017-20.214 15.958-28.219l-0.086 0.102c6.912-7.765 15.083-13.653 24.491-17.749 8.985-3.875 19.446-6.128 30.434-6.128 0.326 0 0.651 0.002 0.976 0.006h-0.049c11.52 0 21.973 2.027 31.403 6.123 9.493 4.075 17.664 9.984 24.491 17.749 6.912 7.744 12.245 17.109 16 28.117 3.84 10.923 5.76 23.339 5.76 37.248zM1066.539 660.032v-8.875c0-9.664-0.853-18.155-2.624-25.493-1.554-7.010-4.234-13.201-7.872-18.702l0.128 0.206c-3.167-4.741-7.377-8.548-12.319-11.155l-0.183-0.088c-4.715-2.451-10.295-3.889-16.211-3.889-0.233 0-0.466 0.002-0.698 0.007l0.035-0.001c-6.336 0-11.947 1.28-16.875 3.883-4.843 2.496-8.96 6.251-12.373 11.243-3.436 5.305-6.077 11.492-7.565 18.115l-0.072 0.381c-1.674 7.212-2.634 15.493-2.634 23.998 0 0.526 0.004 1.051 0.011 1.575l-0.001-0.079v8.875c0 9.6 0.875 18.091 2.624 25.515 1.749 7.317 4.331 13.547 7.765 18.624 3.413 4.992 7.573 8.789 12.501 11.371 4.907 2.581 10.539 3.883 16.853 3.883 6.336 0 11.968-1.28 16.896-3.883 4.907-2.581 9.024-6.379 12.373-11.371 3.328-5.099 5.867-11.307 7.616-18.624 1.749-7.424 2.624-15.915 2.624-25.493zM1168.917 564.672v181.995h-37.504v-181.995h37.504zM1241.408 642.411v29.248h-82.752v-29.227h82.773zM1250.155 564.672v29.376h-91.477v-29.376h91.499zM1379.541 717.803l36.267-153.131h20.224l4.629 25.493-38.613 156.501h-21.781l-0.747-28.864zM1360.917 564.672l29.995 153.131-2.496 28.864h-24.256l-40.363-181.995h37.12zM1472.533 717.163l29.653-152.491h37.12l-40.277 181.995h-24.256l-2.261-29.504zM1447.424 564.672l36.48 153.749-0.96 28.245h-21.76l-38.869-156.629 4.992-25.387h20.139zM1628.16 595.797l-49.493 150.869h-39.893l67.627-181.995h25.387l-3.627 31.125zM1669.291 746.667l-49.621-150.869-4.011-31.147h25.643l67.989 182.016h-40zM1667.051 678.912v29.376h-96.128v-29.376h96.128zM1792.043 564.672v181.995h-37.376v-181.995h37.376zM1848.043 564.672v29.376h-148.501v-29.376h148.501zM1991.552 717.419v29.248h-96.875v-29.248h96.853zM1906.923 564.672v181.995h-37.504v-181.995h37.504zM1978.923 638.784v28.501h-84.267v-28.501h84.267zM1991.424 564.672v29.376h-96.747v-29.376h96.747zM2013.397 564.672h67.904c13.909 0 25.856 2.069 35.861 6.251 10.091 4.16 17.835 10.325 23.253 18.496s8.128 18.197 8.128 30.123c0 9.749-1.664 18.133-4.992 25.131-3.264 6.912-7.893 12.693-13.867 17.365-5.979 4.581-12.913 8.319-20.399 10.859l-0.507 0.149-11.861 6.251h-59.008l-0.235-29.248h43.861c6.592 0 12.053-1.173 16.384-3.499 4.331-2.347 7.573-5.589 9.749-9.749 2.128-4.021 3.378-8.789 3.378-13.849 0-0.231-0.003-0.462-0.008-0.692l0.001 0.034c0-5.845-1.067-10.88-3.243-15.147-2.193-4.24-5.596-7.595-9.75-9.671l-0.127-0.057c-4.416-2.261-9.963-3.371-16.64-3.371h-30.357v152.619h-37.504v-181.995zM2115.179 746.667l-41.493-81.131 39.637-0.235 41.984 79.616v1.749h-40.107z"></path>
</svg>
