<!-- Generated by IcoMoon.io -->
<svg version="1.1" xmlns="http://www.w3.org/2000/svg" width="853" height="1024" viewBox="0 0 853 1024">
<title></title>
<g id="icomoon-ignore">
</g>
<path fill="#9ebbff" d="M337.487 156.118c14.364-11.301 32.516 13.182 34.43 35.785s-18.17 73.452-74.59 86.633c-56.42 13.182-63.119 48.021-61.205 68.74 1.916 20.717-7.648 43.315-27.732 38.613s-21.994-35.785-3.824-64.994c18.169-29.207 64.061-55.558 71.72-71.569 7.661-16.011 1.916-34.839 17.212-41.431 15.298-6.591 35.386 10.357 33.472 26.381 0 0 15.3-15.063 13.387-37.667-1.254-14.838-10.080-34.81-2.869-40.491z"></path>
<path fill="#9ebbff" d="M708.527 293.619c5.31-15.102 43.034-6.592 51.635 14.123 8.604 20.715 5.739 36.725 14.342 50.848s-15.296 37.666-33.001 34.839c-17.705-2.825-10.999-34.839-10.999-48.966s-30.581-26.377-21.978-50.844z"></path>
<path fill="#9ebbff" d="M588.988 115.789c13.090-11.519 41.118 8.316 48.77 24.323s0.956 58.384-22.475 57.443c-23.43-0.94-14.11-34.072-22.473-40.973-14.807-12.234-14.33-31.537-3.823-40.793z"></path>
<path fill="#9ebbff" d="M427.558 17.693c9.282 14.367 2.377 33.9-21.21 38.297s-28.051-15.082-40.806-10.674c-12.753 4.408-26.788 7.532-32.512-2.512-5.722-10.044 0.638-25.111 26.138-25.111s51.349-26.368 68.39 0z"></path>
<path fill="#9ebbff" d="M279.164 154.96c11.089 0 20.079-9.537 20.079-21.303s-8.99-21.303-20.079-21.303c-11.091 0-20.081 9.537-20.081 21.303s8.99 21.303 20.081 21.303z"></path>
<path fill="#9ebbff" d="M192.053 225.489c-7.132-3.539-30.52 33.263-14.583 37.666 15.938 4.405 25.978-32.019 14.583-37.666z"></path>
<path fill="#9ebbff" d="M129.667 334.722c0 0 31.239 16.951 19.762 51.791-11.477 34.842-36.336 30.449-43.988 19.774-7.652-10.673-7.649-25.109 5.101-35.172s19.125-36.393 19.125-36.393z"></path>
<path fill="#9ebbff" d="M792.681 522.428c0 0 9.564 14.146 4.785 39.55-4.781 25.406-12.425 75.317 14.34 89.461 26.767 14.146 37.295-35.78 26.79-50.848-10.507-15.066 5.726-66.878-45.916-78.163z"></path>
<path fill="#9ebbff" d="M826.635 749.372c11.356 0 20.561-10.963 20.561-24.484 0-13.523-9.205-24.484-20.561-24.484s-20.561 10.961-20.561 24.484c0 13.521 9.205 24.484 20.561 24.484z"></path>
<path fill="#9ebbff" d="M20.014 758.786c17.727-9.050 32.512 5.651 34.426 32.96s27.733 50.848 14.342 64.975c-13.391 14.125-28.952-44.258-41.119-49.675-18.667-8.311-33.471-35.078-7.649-48.26z"></path>
<path fill="#9ebbff" d="M773.013 786.093c-16.693 16.96 5.525 34.509-33.886 79.098-16.412 18.551 12.113 74.089-66.942 73.455 0 0-45.907 41.423-91.812 47.093-45.907 5.67-65.024-1.888-109.013 22.603-43.987 24.491-141.532-16.96-181.7-34.848s-55.454-19.78-89.871-19.78c-34.418 0-21.035-52.74-45.907-75.343s-53.555-32.004-55.477-52.715c-1.922-20.71-21.031-30.138-19.114-62.165 1.918-32.026-30.606-41.427-34.418-80.986s17.196-47.074 9.547-69.677c-7.648-22.603-9.547-41.425 1.918-64.028 1.363-2.737 2.947-5.363 4.737-7.853 9.827-13.792 19.257-12.723 25.865-35.462 7.652-26.381-13.383-37.67 9.57-48.964s30.606 22.583 17.2 56.495c-13.406 33.911-30.614 65.92-7.645 71.567s17.223-64.030 47.824-96.058c30.602-32.026 17.223-39.535 57.372-71.563 40.148-32.026 43.988-18.825 57.37-52.74 13.385-33.916 51.181-69.673 89.687-86.633 38.505-16.96 55.706-24.467 49.952-52.736-5.756-28.269 26.349-28.25 27.531-58.388 1.18-30.138-25.626-50.848-48.567-43.313s-45.905 7.532-38.253-16.937c7.652-24.468 55.821-22.602 78.588-11.313s41.909-16.933 72.514 11.313c30.605 28.246 70.754 37.67 65.024 103.608-5.73 65.937-11.465 88.499 13.382 92.279 24.849 3.78 3.836-30.138 3.836-56.495s43.989-24.495 55.454-3.78c11.465 20.713-3.812 56.495 7.652 69.696s32.523 11.29 38.255 30.114c5.73 18.827-3.814 96.058 22.953 113.013 26.765 16.956 21.035-41.423 43.989-23.535 22.953 17.888 28.683 49.897 15.3 81.918-8.93 21.41-9.845 74.844-4.659 120.847 2.519 22.758 6.539 43.725 11.787 58.067 15.806 43.292 16.653 77.184-0.043 94.144z"></path>
<path fill="#c6d7ff" d="M455.977 306.067c50.221-15.616 92.369 70.786 74.893 107.913-17.474 37.129-24.949 151.65 39.951 137.41 64.9-14.242 17.472-124.384 52.414-122.165 34.942 2.217 19.972 103.004 42.438 134.957 22.468 31.953 99.987 250.746-24.898 326.953-124.883 76.207-301.606 73.749-369.274 17.205-27.223-22.748-46.929-46.543-61.445-69.617-6.899-10.961-11.046-19.65-13.872-27.27-6.084-16.378-5.020-22.15-11.154-38.588-4.017-10.586-9.186-20.713-15.417-30.202-13.492-20.427-19.61-18.035-32.225-35.821-4.212-5.937-17.584-25.997-18.818-53.015-0.322-7.076-1.227-26.846 7.319-30.37 9.667-3.985 22.18 16.638 35.020 12.356 6.732-2.249 9.66-10.035 11.5-14.91 5.435-14.445 0-23.375-2.613-44.781-2.011-16.555-4.426-36.459 5.435-53.254 1.615-2.752 6.27-11.744 21.715-20.132 54.328-29.5 103.115-2.458 138.635-56.54 35.522-54.082 36.209-57.634 69.568-71.838 33.357-14.204 3.396-53.54 50.829-68.29z"></path>
<path fill="#407bff" d="M436.038 1024c-35.45 0-84.971-14.317-149.732-43.164-39.465-17.585-53.466-19.057-86.516-19.057-26.137 0-31.712-23.479-36.189-42.342-3.164-13.327-6.437-27.11-15.278-35.138-8.227-7.479-16.827-13.382-25.143-19.117-16.811-11.569-31.328-21.557-32.923-38.812-0.629-6.839-3.789-12.486-7.45-19.029-5.773-10.321-12.96-23.153-11.694-44.324 0.777-13.148-5.536-21.685-13.542-32.497-8.782-11.853-18.737-25.306-20.861-47.247-2.174-22.492 3.024-35.556 7.202-46.065 3.417-8.582 5.478-13.764 2.745-21.839-6.915-20.422-11.414-43.063 2.357-70.189 5.801-11.42 11.915-16.781 16.831-21.088 5.587-4.894 9.621-8.412 13.201-20.836 2.656-9.156 1.165-15.94-0.299-22.496-2.186-9.856-4.903-22.125 14.074-31.469 9.539-4.698 18.873-3.923 25.624 2.118 12.141 10.895 13.36 38.029 2.9 64.521-1.836 4.644-3.743 9.254-5.61 13.762-7.26 17.587-15.491 37.468-11.911 44.425 0.279 0.544 0.936 1.813 4.224 2.624 0.196 0.062 0.401 0.087 0.606 0.079 3.696-1.28 8.153-18.867 10.824-29.376 5.338-21.028 11.981-47.238 28.435-64.454 12.49-13.073 17.149-21.696 21.649-30.039 6.41-11.851 12.459-23.076 36.538-42.268 15.333-12.235 25.535-18.069 33.001-22.34 11.43-6.549 14.505-8.307 21.909-27.053 13.975-35.422 52.619-72.868 93.956-91.070l0.177-0.077c40.079-17.655 49.378-22.626 45.097-43.714-3.844-18.925 6.212-28.751 14.302-36.642 6.775-6.614 12.627-12.326 13.065-23.631 0.478-12.36-4.813-23.86-14.159-30.765-7.358-5.433-15.968-7.107-23.629-4.588-14.694 4.829-34.391 8.487-44.749-1.476-4.166-4.010-8.23-11.691-3.919-25.493 2.769-8.858 9.591-15.79 19.727-20.045 20.913-8.793 52.802-4.798 70.374 3.911 6.302 3.127 12.258 2.026 21.451-0.027 14.091-3.146 31.62-7.061 52.969 12.647 6.485 5.983 13.641 11.244 20.559 16.329 25.504 18.733 51.876 38.125 47.027 93.828-0.717 8.243-1.436 15.812-2.093 22.756-4.945 52.139-3.983 58.967 8.57 60.868 0.881 0.149 1.777 0.211 2.671 0.183 0.535-3.398-1.747-12.521-3.296-18.733-2.33-9.348-4.986-19.942-4.986-29.997 0-13.075 8.154-22.94 21.786-26.353 16.333-4.102 39.733 1.911 49.054 18.733 6.95 12.548 5.798 28.476 4.777 42.528-0.742 10.202-1.581 21.766 1.905 25.769 3.561 4.096 8.887 6.5 14.53 9.050 9.316 4.205 20.911 9.459 25.348 24.013 2.076 6.829 2.396 18.225 2.795 32.655 0.738 26.464 1.852 66.458 16.738 75.883 2.718 1.724 4.271 1.946 4.768 1.803 2.189-0.629 5.299-7.305 7.159-11.296 3.563-7.648 7.61-16.333 16.256-18.374 5.248-1.244 10.793 0.382 16.461 4.787 25.623 19.987 32.612 55.817 17.79 91.315-12.297 29.408-8.034 131.337 7.245 173.118 17.555 48.006 16.924 83.454-1.822 102.507-4.343 4.414-4.817 8.41-5.47 16.996-1.047 13.841-2.49 32.787-28.124 61.788-3.204 3.627-3.968 11.426-4.781 19.684-2.193 22.323-5.489 55.861-65.225 56.529-10.368 8.832-51.537 41.813-93.894 47.025-13.026 1.602-24.009 2.172-33.705 2.677-24.491 1.269-42.187 2.187-72.299 18.946-10.364 5.773-23.447 8.663-39.377 8.663zM104.84 462.37c-1.087 0-2.586 0.333-4.659 1.353-7.586 3.735-7.377 4.668-5.397 13.606 1.615 7.302 3.832 17.303 0.043 30.364-4.903 16.911-11.601 22.78-18.077 28.457-4.465 3.91-8.681 7.603-13.072 16.252-10.521 20.721-8.363 37.51-1.468 57.875 4.608 13.619 0.726 23.379-3.032 32.819-3.727 9.374-7.951 19.994-6.146 38.652 1.693 17.545 9.877 28.593 17.79 39.279 8.743 11.81 17.786 24.021 16.656 42.946-0.986 16.518 4.201 25.788 9.706 35.593 4.166 7.447 8.476 15.149 9.419 25.353 0.901 9.79 11.974 17.406 25.993 27.053 8.355 5.734 17.825 12.265 26.867 20.484 12.525 11.386 16.551 28.348 20.108 43.313 5.047 21.233 8.281 29.882 20.239 29.882 34.305 0 51.248 1.766 93.268 20.491 109.020 48.555 154.95 45.937 174.289 35.174 33.463-18.626 53.777-19.678 79.494-21.009 9.419-0.489 20.092-1.039 32.535-2.573 42.812-5.271 86.844-44.631 87.281-45.026 1.51-1.363 3.486-2.121 5.536-2.121h0.066c47.802 0.382 49.734-19.243 51.968-41.961 1.067-10.899 2.080-21.199 8.727-28.719 22.065-24.958 23.217-40.173 24.145-52.401 0.683-8.956 1.387-18.221 10.039-27.017 13.694-13.92 13.030-45.199-1.824-85.824-16.89-46.195-20.868-151.503-6.989-184.719 11.981-28.674 6.955-57.126-12.813-72.533-0.762-0.634-1.609-1.165-2.515-1.579-1.515 1.453-3.761 6.274-5.148 9.248-3.789 8.137-8.083 17.353-17.444 20.053-5.634 1.619-11.763 0.382-18.225-3.721-22.163-14.031-23.322-55.601-24.254-89.003-0.337-12.181-0.655-23.703-2.112-28.465-2.202-7.221-7.435-9.89-16.493-13.988-6.669-3.017-14.231-6.434-20.134-13.214-7.866-9.037-6.863-22.82-5.803-37.412 0.9-12.418 1.833-25.263-2.816-33.645-5.152-9.301-20.425-13.38-30.633-10.818-9.455 2.374-9.455 8.659-9.455 10.724 0 8.096 2.396 17.681 4.512 26.138 3.526 14.093 6.569 26.261-0.454 33.82-3.855 4.151-9.683 5.666-17.316 4.512-29.385-4.45-27.049-29.133-22.385-78.31 0.655-6.882 1.37-14.432 2.084-22.633 4.068-46.765-15.599-61.22-40.506-79.522-7.283-5.353-14.812-10.885-21.963-17.487-15.006-13.855-25.237-11.577-38.146-8.686-9.641 2.153-20.578 4.588-32.442-1.296-14.059-6.973-40.766-10.124-56.585-3.479-5.641 2.367-9.169 5.716-10.481 9.94-1.406 4.504-1.519 8.029-0.292 9.214 2.167 2.084 11.439 3.192 28.126-2.294 12.83-4.206 26.916-1.663 38.637 6.996 13.645 10.078 21.378 26.632 20.695 44.28-0.685 17.648-10.231 26.98-17.899 34.466-8.030 7.841-11.799 12.051-9.773 22.029 6.989 34.519-16.132 44.73-54.47 61.594l-0.179 0.081c-37.109 16.343-73.011 50.914-85.367 82.197-9.118 23.085-15.095 27.221-28.937 35.147-6.989 4.006-16.567 9.493-30.921 20.932-21.486 17.129-26.533 26.479-32.38 37.306-4.775 8.847-10.192 18.88-24.184 33.523-13.527 14.144-19.599 38.078-24.46 57.308-2.857 11.264-5.323 20.99-8.895 28.23-7.016 14.214-17.044 14.146-22.394 12.809-8.712-2.144-12.89-7.153-14.858-10.976-6.961-13.508 1.526-34.027 11.348-57.798 1.836-4.439 3.712-8.973 5.513-13.538 9.004-22.795 6.503-42.112 1.332-46.75-0.345-0.333-0.757-0.591-1.209-0.759-0.452-0.166-0.934-0.241-1.416-0.215z"></path>
<path fill="#407bff" d="M213.623 392.567c-2.24-0.011-4.473-0.277-6.65-0.796-8.196-1.911-14.61-7.486-18.061-15.676-6.453-15.292-2.458-37.658 10.42-58.353 10.483-16.821 28.928-32.115 45.216-45.621 11.981-9.941 23.294-19.311 26.182-25.359 2.496-5.222 3.398-11.106 4.271-16.796 1.591-10.383 3.394-22.155 16.043-27.603 8.655-3.731 19.153-2.072 28.081 4.442 4.508 3.27 8.192 7.514 10.771 12.406 2.765-5.658 5.097-13.259 4.348-22.106-0.388-4.534-1.602-9.868-2.78-15.021-2.884-12.616-5.606-24.548 2.193-30.696 5.696-4.485 12.529-5.391 19.238-2.546 12.533 5.311 23.578 24.002 25.148 42.548 2.089 24.679-19.631 79.083-79.292 93.022-53.028 12.39-58.165 44.348-56.506 62.317 1.513 16.386-3.475 32.062-12.704 39.936-4.388 3.829-10.057 5.929-15.919 5.901zM300.736 212.495c-1.641-0.013-3.266 0.308-4.772 0.945-6.15 2.65-7.253 8.109-8.817 18.327-0.956 6.244-2.039 13.316-5.299 20.141-4.034 8.45-15.223 17.732-29.387 29.476-15.578 12.915-33.231 27.55-42.654 42.69-10.533 16.922-14.365 35.968-9.551 47.407 1.941 4.634 5.171 7.509 9.562 8.538 4.628 1.086 8.449 0.275 11.674-2.477 6.244-5.327 9.668-17.263 8.518-29.702-1.628-17.587 1.553-60.134 65.897-75.172 52.489-12.265 71.68-59.074 69.886-80.248-1.289-15.232-10.398-29.324-17.762-32.444-2.543-1.078-4.546-0.818-6.694 0.872-1.687 1.996 0.777 12.796 2.106 18.603 1.269 5.559 2.581 11.305 3.036 16.673 2.123 25.106-14.46 41.748-15.166 42.438-0.9 0.887-2.061 1.476-3.317 1.685s-2.549 0.028-3.697-0.518c-1.148-0.546-2.095-1.429-2.709-2.53-0.614-1.099-0.866-2.359-0.719-3.607 0.683-5.734-2.959-12.582-9.067-17.039-3.622-2.665-7.511-4.046-11.068-4.046v-0.012z"></path>
<path fill="#407bff" d="M744.623 399.708c-1.37 0.002-2.737-0.105-4.087-0.318-19.802-3.162-17.918-28.608-16.672-45.444 0.265-3.58 0.512-6.963 0.512-9.493 0-3.247-4.243-7.987-8.352-12.574-8.316-9.295-19.71-22.027-13.303-40.256 2.526-7.179 9.666-11.469 19.595-11.721 15.674-0.382 36.755 9.218 43.533 25.538 4.35 10.46 5.933 19.735 7.33 27.91 1.438 8.41 2.675 15.674 6.601 22.106 4.388 7.198 3.371 16.439-2.784 25.399-6.778 9.873-19.614 18.852-32.371 18.852zM723.351 291.983h-0.7c-2.144 0.062-7.245 0.527-8.324 3.59-3.78 10.758 1.869 18.191 10.914 28.29 5.873 6.562 11.418 12.759 11.418 20.574 0 2.97-0.262 6.564-0.546 10.372-0.922 12.439-2.33 31.234 6.385 32.627 7.505 1.184 18.423-4.8 24.324-13.382 1.589-2.293 5.009-8.143 2.419-12.39-5.118-8.412-6.601-17.105-8.177-26.327-1.355-7.927-2.756-16.128-6.601-25.346-4.463-10.754-19.789-18.007-31.113-18.007z"></path>
<path fill="#407bff" d="M616.083 203.619c-0.346 0-0.691 0-1.041-0.023-20.19-0.81-22.441-19.881-23.795-31.247-0.444-3.72-1.165-9.94-2.394-11.148-8.491-7.008-13.463-16.891-13.63-27.098-0.145-8.965 3.386-17.285 9.679-22.824 5.047-4.431 11.853-5.937 19.695-4.366 15.919 3.192 32.89 18.412 38.724 30.624 5.952 12.46 4.798 37.991-5.66 53.524-5.557 8.227-12.998 12.559-21.579 12.559zM598.805 118.404c-2.368 0-4.271 0.631-5.719 1.911-3.633 3.196-5.668 8.159-5.579 13.61 0.109 6.794 3.396 13.198 9.257 18.038 4.902 4.045 5.769 11.305 6.682 18.993 1.634 13.714 3.358 20.217 12.098 20.569 4.638 0.191 8.514-2.156 11.881-7.153 7.763-11.546 9.135-32.566 4.783-41.673-4.465-9.34-18.249-21.559-30.059-23.921-1.099-0.235-2.219-0.36-3.343-0.375z"></path>
<path fill="#407bff" d="M399.597 62.7c-10.895 0-17.777-4.714-23.066-8.331-4.992-3.414-6.573-4.167-8.958-3.341-9.207 3.173-30.827 10.621-39.881-5.257-1.818-3.121-2.765-6.66-2.746-10.257 0.021-3.598 1.007-7.126 2.859-10.227 2.993-5.096 11.108-13.641 31.362-13.641 7.765 0 16.079-2.967 24.13-5.834 15.887-5.658 35.657-12.693 49.444 8.637 5.574 8.625 6.498 18.734 2.543 27.741-4.435 10.082-14.564 17.277-27.795 19.743-2.601 0.499-5.244 0.756-7.893 0.768zM369.212 38.614c5.824 0 10.436 3.158 14.327 5.819 5.7 3.9 11.081 7.585 21.668 5.612 9.299-1.732 15.977-6.228 18.803-12.662 2.33-5.261 1.719-11.255-1.634-16.44-8.105-12.574-17.553-9.933-34.893-3.739-9.045 3.223-18.406 6.553-28.307 6.553-10.317 0-17.886 2.787-20.774 7.646-0.768 1.28-1.173 2.739-1.173 4.225s0.405 2.945 1.173 4.225c2.78 4.867 10.528 4.798 25.131-0.233 1.822-0.649 3.742-0.989 5.679-1.005z"></path>
<path fill="#407bff" d="M279.164 161.009c-14.462 0-26.227-12.268-26.227-27.351s11.765-27.351 26.227-27.351c14.462 0 26.223 12.269 26.223 27.351s-11.765 27.351-26.223 27.351zM279.164 118.404c-7.686 0-13.941 6.844-13.941 15.254s6.255 15.254 13.941 15.254c7.686 0 13.937-6.844 13.937-15.254s-6.251-15.254-13.937-15.254z"></path>
<path fill="#407bff" d="M180.223 269.589c-1.489-0.004-2.97-0.211-4.403-0.612-5.121-1.41-8.631-5.21-9.629-10.421-2.263-11.829 8.93-30.3 17.316-36.503 5.047-3.75 8.93-3.142 11.313-1.965 9.811 4.866 10.048 19.853 5.21 32.149-4.345 11.055-11.694 17.353-19.808 17.353zM190.17 232.207c-4.508 3.799-12.369 16.183-11.993 23.362 0.081 1.53 0.388 1.606 0.955 1.762 3.549 0.988 7.377-4.224 9.446-9.466 2.749-6.989 2.531-13.041 1.592-15.659z"></path>
<path fill="#407bff" d="M121.473 420.021c-8.351 0-16.477-3.855-21.055-10.242-10.362-14.455-7.765-32.29 6.282-43.366 9.073-7.149 15.34-26.315 16.986-33.094 0.221-0.905 0.65-1.745 1.255-2.46s1.369-1.282 2.233-1.658c0.864-0.378 1.804-0.553 2.748-0.514 0.944 0.041 1.866 0.292 2.694 0.74 12.342 6.694 32.958 27.637 22.643 58.953-8.103 24.606-22.177 30.204-29.845 31.351-1.304 0.194-2.621 0.292-3.941 0.29zM133.070 344.704c-3.164 9.295-9.318 23.738-18.698 31.145-10.96 8.636-8.961 19.91-3.917 26.946 2.159 3.012 7.194 5.852 13.127 4.969 8.402-1.252 15.503-9.461 19.999-23.119 6.682-20.258-3.265-33.451-10.51-39.932v-0.009z"></path>
<path fill="#407bff" d="M820.868 659.962c-3.883 0-7.908-1.056-11.962-3.194-28.962-15.292-23.846-62.046-17.47-95.891 4.211-22.385-3.772-34.974-3.853-35.093-0.678-1.005-1.039-2.187-1.030-3.392 0.006-1.207 0.382-2.385 1.073-3.381 0.693-0.996 1.673-1.764 2.814-2.208 1.139-0.444 2.389-0.54 3.584-0.277 40.646 8.892 43.819 41.056 45.916 62.342 0.777 7.765 1.491 15.102 3.718 18.291 9.047 12.96 5.715 41.783-6.37 55.076-4.663 5.116-10.336 7.727-16.42 7.727zM803.059 532.183c1.841 7.422 2.901 17.843 0.444 30.899-8.755 46.551-4.986 74.485 11.204 83.023 5.436 2.88 9.587 2.295 13.419-1.935 8.766-9.645 10.731-32.495 5.395-40.143-4.021-5.764-4.855-14.206-5.822-23.979-1.775-18.046-3.759-38.159-24.64-47.866z"></path>
<path fill="#407bff" d="M826.626 755.418c-14.722 0-26.699-13.694-26.699-30.532 0-16.836 11.977-30.53 26.699-30.53s26.705 13.698 26.705 30.53c0 16.834-11.989 30.532-26.705 30.532zM826.626 706.451c-7.951 0-14.415 8.269-14.415 18.434 0 10.167 6.464 18.436 14.415 18.436 7.953 0 14.421-8.269 14.421-18.436 0-10.165-6.468-18.434-14.421-18.434z"></path>
<path fill="#407bff" d="M64.424 864.966c-0.543 0-1.085-0.038-1.623-0.115-9.706-1.395-16.609-15.061-24.599-30.882-3.758-7.447-10.048-19.904-13.084-21.41-14.179-6.319-24.72-20.461-25.108-33.626-0.291-10.654 5.824-19.718 17.157-25.515 8.456-4.32 17.188-4.446 24.576-0.361 10.661 5.901 17.518 19.846 18.807 38.27 0.734 10.487 5.436 20.508 9.986 30.204 6.511 13.875 13.243 28.22 2.718 39.317-3.075 3.258-6.293 4.117-8.829 4.117zM30.192 762.17c-2.306 0-4.759 0.661-7.357 1.984-7.151 3.654-10.696 8.514-10.537 14.451 0.233 8.495 8.091 18.566 17.891 22.94 6.577 2.929 11.508 12.188 19.024 27.049 3.921 7.761 11.081 21.946 14.99 24.113l0.097-0.102c4.659-4.902 1.165-13.073-4.892-25.999-4.783-10.189-10.199-21.734-11.088-34.438-0.986-14.074-5.684-24.747-12.568-28.555-1.694-0.951-3.61-1.449-5.56-1.442z"></path>
<path fill="#407bff" d="M485.781 693.342c4.909 24.049-10.765 49.357-33.451 58.878-31.755 14.234-71.588-2.519-81.182-35.874-2.21-7.614-2.675-15.595-1.165-23.010 0.164-0.796 0.602-1.51 1.235-2.025 0.636-0.516 1.431-0.804 2.255-0.813s1.623 0.26 2.27 0.762c0.646 0.503 1.099 1.207 1.282 1.999 5.203 24.467 25.858 42.769 50.515 42.517 24.486-0.188 44.559-18.244 49.835-42.436 0.879-4.467 7.533-4.431 8.39 0l0.015 0.002z"></path>
<path fill="#fff" opacity="0.5" d="M210.965 730.146c22.135-4.171 35.686-30.155 30.27-58.037s-27.753-47.106-49.886-42.938c-22.134 4.171-35.687 30.155-30.27 58.037s27.752 47.106 49.886 42.938z"></path>
<path fill="#fff" opacity="0.5" d="M212.167 601.566c22.88 7.012 45.868-66.767 86.412-83.462 40.544-16.698 67.273-69.22 79.708-103.191 12.435-33.973 63.475-56.156 52.693-79.904-10.782-23.75-57.476-4.642-84.988 31.529s-15.238 73.909-56.738 89.879c-41.502 15.97-124.446 130.633-77.088 145.15z"></path>
<path fill="#407bff" opacity="0.2" d="M752.143 783.522c-15.684 15.311 5.195 31.155-31.836 71.413-15.426 16.749 11.383 66.906-62.897 66.317 0 0-43.142 37.402-86.287 42.517-43.147 5.116-61.116-1.707-102.455 20.407-41.342 22.114-133.022-15.292-170.78-31.46-37.756-16.169-52.113-17.858-84.463-17.858-32.349 0-19.769-47.618-43.146-68.021-23.376-20.405-50.336-28.896-52.138-47.595-1.802-18.701-19.77-27.211-17.968-56.124 1.802-28.915-28.765-37.404-32.349-73.12-3.584-35.714 16.163-42.498 8.972-62.906s-8.972-37.402 1.805-57.807c1.286-2.479 2.775-4.851 4.453-7.091 0.454 11.569 1.107 23.142 5.125 30.315 4.15 7.415 9.648 14.259 12.187 22.295 6.519 20.646-8.060 41.634-10.188 63.083-3.952 39.68 33.284 70.385 58.746 102.135 22.658 28.254 38.906 63.006 70.906 81.502 35.61 20.593 81.796 15.294 120.791 1.274s74.603-35.938 114.336-48.004c45.971-14.014 95.283-14.244 143.516-11.851 34.737 1.724 74.404 3.059 98.564-20.591 13.903-13.604 19.462-32.862 23.268-51.437 7.298-35.661 10.037-72.079 8.154-108.407 4.211 7.853 8.418 15.712 12.621 23.575 2.366 20.548 6.146 39.477 11.076 52.422 14.867 39.106 15.652 69.707-0.015 85.015z"></path>
<path fill="#407bff" d="M542.14 531.836c26.257-2.633 50.502 25.673 54.153 63.223 3.65 37.553-14.684 70.133-40.937 72.772-26.253 2.637-50.505-25.675-54.153-63.226-3.65-37.551 14.679-70.127 40.937-72.77z"></path>
<path fill="#fff" d="M543.985 547.569c8.367 3.441 11.97 16.222 8.049 28.548s-13.888 19.533-22.255 16.092c-8.367-3.441-11.97-16.222-8.047-28.548 3.921-12.324 13.886-19.533 22.253-16.092z"></path>
<path fill="#8baeff" d="M572.139 628.297c3.959 2.891 4.442 9.941 1.075 15.74-3.366 5.801-9.318 8.175-13.267 5.289-3.947-2.886-4.442-9.939-1.075-15.74s9.308-8.171 13.267-5.289z"></path>
<path fill="#407bff" d="M316.96 531.836c-26.257-2.633-50.505 25.673-54.153 63.223-3.65 37.553 14.679 70.133 40.937 72.772 26.257 2.637 50.502-25.675 54.153-63.226s-14.675-70.127-40.937-72.77z"></path>
<path fill="#fff" d="M315.113 547.569c-8.367 3.441-11.97 16.222-8.047 28.548 3.921 12.326 13.886 19.533 22.253 16.092s11.97-16.222 8.049-28.548c-3.921-12.324-13.888-19.533-22.255-16.092z"></path>
<path fill="#8baeff" d="M286.961 628.297c-3.959 2.891-4.442 9.941-1.075 15.74 3.366 5.801 9.318 8.175 13.267 5.289s4.442-9.939 1.075-15.74c-3.366-5.801-9.306-8.171-13.267-5.289z"></path>
</svg>
