<svg fill="none" strokeLinejoin="round" strokeLinecap="round" strokeMiterlimit="4" strokeWidth="42.6667" xmlns="http://www.w3.org/2000/svg" viewBox="0 0 1024 1024">
  <path d="M409.344 168.107c3.84-23.125 23.893-40.107 47.36-40.107h110.635c23.467 0 43.52 16.981 47.36 40.107l9.088 54.656c2.688 15.957 13.355 29.269 27.52 37.12 3.157 1.707 6.272 3.541 9.387 5.419 13.824 8.363 30.72 10.965 45.867 5.291l51.925-19.456c5.018-1.945 10.826-3.072 16.896-3.072 17.664 0 33.1 9.542 41.434 23.753l0.123 0.226 55.296 95.872c4.036 6.88 6.42 15.152 6.42 23.981 0 14.895-6.785 28.206-17.432 37.010l-0.081 0.065-42.795 35.285c-12.501 10.24-18.688 26.155-18.347 42.325v10.88c-0.341 16.128 5.845 32 18.347 42.24l42.837 35.328c18.091 14.933 22.784 40.704 11.093 61.013l-55.381 95.872c-8.454 14.449-23.896 24.001-41.57 24.001-6.050 0-11.839-1.119-17.17-3.162l0.329 0.111-51.925-19.456c-15.147-5.675-32-3.072-45.909 5.291-1.845 1.189-4.912 2.999-8.016 4.75l-1.37 0.711c-14.080 7.808-24.747 21.12-27.477 37.077l-9.088 54.613c-3.84 23.168-23.893 40.149-47.36 40.149h-110.677c-23.467 0-43.52-16.981-47.36-40.107l-9.088-54.656c-2.645-15.957-13.312-29.269-27.477-37.12-4.492-2.452-7.56-4.249-10.588-6.102l1.202 0.684c-13.867-8.363-30.72-10.965-45.909-5.291l-51.925 19.456c-5.008 1.937-10.804 3.059-16.861 3.059-17.659 0-33.091-9.536-41.427-23.74l-0.123-0.226-55.339-95.872c-4.036-6.88-6.42-15.152-6.42-23.981 0-14.895 6.785-28.206 17.432-37.010l0.081-0.065 42.837-35.285c12.459-10.24 18.645-26.155 18.347-42.325-0.032-1.619-0.050-3.527-0.050-5.44s0.018-3.822 0.055-5.726l-0.004 0.286c0.299-16.128-5.888-32-18.347-42.24l-42.837-35.328c-10.719-8.869-17.496-22.174-17.496-37.061 0-8.817 2.377-17.079 6.526-24.18l-0.123 0.227 55.339-95.872c8.452-14.457 23.898-24.014 41.577-24.014 6.063 0 11.864 1.124 17.205 3.175l-0.329-0.111 51.883 19.456c15.189 5.675 32.043 3.072 45.909-5.291 3.072-1.877 6.229-3.712 9.387-5.461 14.165-7.808 24.832-21.12 27.477-37.077l9.131-54.656z"/>
  <path d="M640 512c0 70.692-57.308 128-128 128s-128-57.308-128-128v0c0-70.692 57.308-128 128-128s128 57.308 128 128v0z"/>
</svg>
