<svg width="16" height="16" viewBox="0 0 16 16" fill="none" xmlns="http://www.w3.org/2000/svg">
<rect width="16" height="16" fill="#1E1E1E"/>
<g id="Home screen Tracker of water">
<rect width="1440" height="800" transform="translate(-1312 -28)" fill="white"/>
<g id="Frame 82">
<g id="Frame 80">
<g id="Frame 79">
<g id="chevron-double-up/solid">
<path id="Vector" fill-rule="evenodd" clip-rule="evenodd" d="M8.35331 10.8533C8.25956 10.947 8.13248 10.9996 7.99998 10.9996C7.86748 10.9996 7.7404 10.947 7.64665 10.8533L2.64665 5.85332C2.55833 5.75854 2.51024 5.63318 2.51253 5.50364C2.51481 5.37411 2.56729 5.25052 2.6589 5.15891C2.75051 5.0673 2.8741 5.01483 3.00363 5.01254C3.13316 5.01025 3.25853 5.05834 3.35331 5.14666L7.99998 9.79332L12.6466 5.14666C12.6924 5.09753 12.7476 5.05813 12.809 5.0308C12.8703 5.00347 12.9365 4.98878 13.0036 4.9876C13.0708 4.98641 13.1375 4.99876 13.1997 5.02391C13.262 5.04906 13.3185 5.08649 13.366 5.13396C13.4135 5.18144 13.4509 5.238 13.4761 5.30026C13.5012 5.36252 13.5136 5.4292 13.5124 5.49634C13.5112 5.56347 13.4965 5.62968 13.4692 5.69102C13.4418 5.75235 13.4024 5.80755 13.3533 5.85332L8.35331 10.8533Z" fill="#407BFF"/>
</g>
</g>
</g>
</g>
</g>
</svg>
