<!-- Generated by IcoMoon.io -->
<svg version="1.1" xmlns="http://www.w3.org/2000/svg" width="1024" height="1024" viewBox="0 0 1024 1024">
<title>statistic</title>
<path fill="none" stroke="#407bff" stroke-linejoin="round" stroke-linecap="round" stroke-miterlimit="4" stroke-width="51.2" d="M160 128v480c0 53.019 42.981 96 96 96v0h96M160 128h-64M160 128h704M352 704h320M352 704l-42.675 128M864 128h64M864 128v480c0 53.019-42.981 96-96 96v0h-96M672 704l42.675 128M309.325 832h405.35M309.325 832l-21.325 64M714.675 832l21.325 64M384 480v64M512 384v160M640 288v256"></path>
</svg>
