<svg fill="none" stroke="#407bff" strokeLinejoin="round" strokeLinecap="round" strokeMiterlimit="4" strokeWidth="51.2" xmlns="http://www.w3.org/2000/svg" viewBox="0 0 1024 1024">
  <path d="M487.245 647.245l248.755 248.755c20.338 19.706 48.101 31.853 78.701 31.853 62.492 0 113.152-50.66 113.152-113.152 0-30.6-12.147-58.363-31.882-78.731l0.029 0.030-250.752-250.752M487.245 647.245l106.496-129.28c13.542-16.384 31.59-26.701 51.558-32.666 23.45-7.014 49.613-8.038 74.368-5.99 4.916 0.447 10.632 0.702 16.409 0.702 106.039 0 192-85.961 192-192 0-28.641-6.271-55.817-17.515-80.231l0.492 1.192-139.776 139.827c-47.769-11.316-84.684-48.231-95.825-95.129l-0.175-0.871 139.776-139.776c-23.222-10.752-50.399-17.024-79.041-17.024-106.039 0-192 85.961-192 192 0 5.786 0.256 11.512 0.757 17.167l-0.052-0.732c3.891 45.901-3.021 96.589-38.554 125.85l-4.352 3.635M487.245 647.245l-198.605 241.203c-20.083 24.244-50.195 39.573-83.886 39.573-60.032 0-108.698-48.666-108.698-108.698 0-33.692 15.329-63.803 39.392-83.741l0.181-0.146 291.712-240.205-175.232-175.232h-60.109l-96-160 64-64 160 96v60.109l181.76 181.76-74.445 61.312M784 784l-112-112M207.667 816h0.333v0.333h-0.333v-0.333z"/>
</svg>
