<svg fill="none" strokeLinejoin="round" strokeLinecap="round" strokeMiterlimit="4" strokeWidth="42.6667" xmlns="http://www.w3.org/2000/svg" width="1024" height="1024" viewBox="0 0 1024 1024">
  <title>show-pass</title>
  <path d="M86.869 525.739c-1.4-4.068-2.208-8.756-2.208-13.632s0.808-9.564 2.298-13.936l-0.090 0.304c59.179-178.048 227.157-306.475 425.131-306.475 197.888 0 365.781 128.299 425.088 306.261 2.987 8.832 2.987 18.389 0 27.264-59.136 178.048-227.115 306.475-425.088 306.475-197.888 0-365.824-128.299-425.131-306.261z"/>
  <path d="M640 512c0 70.692-57.308 128-128 128s-128-57.308-128-128v0c0-70.692 57.308-128 128-128s128 57.308 128 128v0z"/>
</svg>
