<svg fill="none" strokeLinejoin="miter" strokeLinecap="butt" strokeMiterlimit="4" strokeWidth="42.6667" xmlns="http://www.w3.org/2000/svg" width="1024" height="1024" viewBox="0 0 1024 1024">
  <title>user</title>
  <path d="M1002.667 512c0 270.988-219.679 490.667-490.667 490.667s-490.667-219.679-490.667-490.667c0-270.988 219.679-490.667 490.667-490.667s490.667 219.679 490.667 490.667z"/>
  <path d="M640 301.952c0 34.816-13.483 68.224-37.461 92.843-22.958 23.647-55.026 38.34-90.527 38.4h-0.011c-35.512-0.06-67.581-14.752-90.508-38.369l-0.03-0.031c-23.176-23.906-37.462-56.547-37.462-92.525 0-0.112 0-0.223 0-0.335v0.017c0-34.816 13.483-68.224 37.461-92.843 22.952-23.663 55.021-38.371 90.525-38.443h0.014c33.963 0 66.517 13.824 90.539 38.443 23.979 24.619 37.461 58.027 37.461 92.843zM256 796.16c1.027-71.367 30.023-135.769 76.489-182.9l-0.031 0.031c45.756-46.408 109.272-75.202 179.513-75.349h0.028c67.2 0 131.669 27.051 179.541 75.392 46.426 47.091 75.42 111.475 76.456 182.628l0.002 0.199c-74.811 36.086-162.677 57.174-255.468 57.174-0.187 0-0.374 0-0.562 0h0.029c-91.349 0-178.048-20.48-256-57.173z"/>
</svg>
